{
    "asset" : {
        "generator" : "Khronos glTF Blender I/O v1.5.17",
        "version" : "2.0"
    },
    "scene" : 0,
    "scenes" : [
        {
            "name" : "Scene",
            "nodes" : [
                0
            ]
        }
    ],
    "nodes" : [
        {
            "mesh" : 0,
            "name" : "Bot_handles_Bot_Cube.004_Cube.001",
            "rotation" : [
                0.7671313881874084,
                0.1931408941745758,
                0.1605900526046753,
                -0.5902684330940247
            ]
        }
    ],
    "materials" : [
        {
            "doubleSided" : true,
            "name" : "achterzijde.001",
            "pbrMetallicRoughness" : {
                "baseColorFactor" : [
                    0.800000011920929,
                    0.800000011920929,
                    0.800000011920929,
                    1
                ],
                "metallicFactor" : 0,
                "roughnessFactor" : 0.8529411554336548
            }
        },
        {
            "doubleSided" : true,
            "name" : "achterzijde",
            "pbrMetallicRoughness" : {
                "baseColorFactor" : [
                    0.800000011920929,
                    0.800000011920929,
                    0.800000011920929,
                    1
                ],
                "metallicFactor" : 0,
                "roughnessFactor" : 0.5
            }
        },
        {
            "doubleSided" : true,
            "name" : "bloem essen2",
            "pbrMetallicRoughness" : {
                "baseColorTexture" : {
                    "index" : 0
                },
                "metallicFactor" : 0,
                "roughnessFactor" : 0.5
            }
        },
        {
            "doubleSided" : true,
            "name" : "bloem essen",
            "pbrMetallicRoughness" : {
                "baseColorFactor" : [
                    0,
                    0,
                    0,
                    1
                ],
                "metallicFactor" : 0,
                "roughnessFactor" : 0.5
            }
        }
    ],
    "meshes" : [
        {
            "name" : "Bot_handles_Bot_Cube.004_Cube.001",
            "primitives" : [
                {
                    "attributes" : {
                        "POSITION" : 0,
                        "NORMAL" : 1,
                        "TEXCOORD_0" : 2
                    },
                    "indices" : 3,
                    "material" : 0
                },
                {
                    "attributes" : {
                        "POSITION" : 4,
                        "NORMAL" : 5,
                        "TEXCOORD_0" : 6
                    },
                    "indices" : 7,
                    "material" : 1
                },
                {
                    "attributes" : {
                        "POSITION" : 8,
                        "NORMAL" : 9,
                        "TEXCOORD_0" : 10
                    },
                    "indices" : 11,
                    "material" : 2
                },
                {
                    "attributes" : {
                        "POSITION" : 12,
                        "NORMAL" : 13,
                        "TEXCOORD_0" : 14
                    },
                    "indices" : 15,
                    "material" : 3
                }
            ]
        }
    ],
    "textures" : [
        {
            "sampler" : 0,
            "source" : 0
        }
    ],
    "images" : [
        {
            "bufferView" : 12,
            "mimeType" : "image/png",
            "name" : "sun"
        }
    ],
    "accessors" : [
        {
            "bufferView" : 0,
            "componentType" : 5126,
            "count" : 3255,
            "max" : [
                -0.43844711780548096,
                1.3511039018630981,
                -0.03273127228021622
            ],
            "min" : [
                -1.4217188358306885,
                -1.6974397897720337,
                -0.09430787712335587
            ],
            "type" : "VEC3"
        },
        {
            "bufferView" : 1,
            "componentType" : 5126,
            "count" : 3255,
            "type" : "VEC3"
        },
        {
            "bufferView" : 2,
            "componentType" : 5126,
            "count" : 3255,
            "type" : "VEC2"
        },
        {
            "bufferView" : 3,
            "componentType" : 5123,
            "count" : 17808,
            "type" : "SCALAR"
        },
        {
            "bufferView" : 4,
            "componentType" : 5126,
            "count" : 7045,
            "max" : [
                -0.46026432514190674,
                1.3099638223648071,
                0.30910995602607727
            ],
            "min" : [
                -1.4029791355133057,
                -1.6468044519424438,
                -0.3621985614299774
            ],
            "type" : "VEC3"
        },
        {
            "bufferView" : 5,
            "componentType" : 5126,
            "count" : 7045,
            "type" : "VEC3"
        },
        {
            "bufferView" : 6,
            "componentType" : 5126,
            "count" : 7045,
            "type" : "VEC2"
        },
        {
            "bufferView" : 7,
            "componentType" : 5123,
            "count" : 11742,
            "type" : "SCALAR"
        },
        {
            "bufferView" : 8,
            "componentType" : 5126,
            "count" : 16,
            "max" : [
                -1.20839262008667,
                1.3080044984817505,
                0.27611640095710754
            ],
            "min" : [
                -1.4029791355133057,
                -1.6468044519424438,
                -0.3621985614299774
            ],
            "type" : "VEC3"
        },
        {
            "bufferView" : 9,
            "componentType" : 5126,
            "count" : 16,
            "type" : "VEC3"
        },
        {
            "bufferView" : 10,
            "componentType" : 5126,
            "count" : 16,
            "type" : "VEC2"
        },
        {
            "bufferView" : 11,
            "componentType" : 5123,
            "count" : 24,
            "type" : "SCALAR"
        },
        {
            "bufferView" : 13,
            "componentType" : 5126,
            "count" : 36,
            "max" : [
                -0.438509464263916,
                1.3308802843093872,
                0.30013540387153625
            ],
            "min" : [
                -1.424734115600586,
                -1.6661533117294312,
                0.13899782299995422
            ],
            "type" : "VEC3"
        },
        {
            "bufferView" : 14,
            "componentType" : 5126,
            "count" : 36,
            "type" : "VEC3"
        },
        {
            "bufferView" : 15,
            "componentType" : 5126,
            "count" : 36,
            "type" : "VEC2"
        },
        {
            "bufferView" : 16,
            "componentType" : 5123,
            "count" : 36,
            "type" : "SCALAR"
        }
    ],
    "bufferViews" : [
        {
            "buffer" : 0,
            "byteLength" : 39060,
            "byteOffset" : 0
        },
        {
            "buffer" : 0,
            "byteLength" : 39060,
            "byteOffset" : 39060
        },
        {
            "buffer" : 0,
            "byteLength" : 26040,
            "byteOffset" : 78120
        },
        {
            "buffer" : 0,
            "byteLength" : 35616,
            "byteOffset" : 104160
        },
        {
            "buffer" : 0,
            "byteLength" : 84540,
            "byteOffset" : 139776
        },
        {
            "buffer" : 0,
            "byteLength" : 84540,
            "byteOffset" : 224316
        },
        {
            "buffer" : 0,
            "byteLength" : 56360,
            "byteOffset" : 308856
        },
        {
            "buffer" : 0,
            "byteLength" : 23484,
            "byteOffset" : 365216
        },
        {
            "buffer" : 0,
            "byteLength" : 192,
            "byteOffset" : 388700
        },
        {
            "buffer" : 0,
            "byteLength" : 192,
            "byteOffset" : 388892
        },
        {
            "buffer" : 0,
            "byteLength" : 128,
            "byteOffset" : 389084
        },
        {
            "buffer" : 0,
            "byteLength" : 48,
            "byteOffset" : 389212
        },
        {
            "buffer" : 0,
            "byteLength" : 430533,
            "byteOffset" : 389260
        },
        {
            "buffer" : 0,
            "byteLength" : 432,
            "byteOffset" : 819796
        },
        {
            "buffer" : 0,
            "byteLength" : 432,
            "byteOffset" : 820228
        },
        {
            "buffer" : 0,
            "byteLength" : 288,
            "byteOffset" : 820660
        },
        {
            "buffer" : 0,
            "byteLength" : 72,
            "byteOffset" : 820948
        }
    ],
    "samplers" : [
        {
            "magFilter" : 9729,
            "minFilter" : 9987
        }
    ],
    "buffers" : [
        {
            "byteLength" : 821020,
            "uri" : "data:application/octet-stream;base64,"
        }
    ]
}
